<?xml version="1.0" encoding="utf-8"?>
<!-- Generator: Adobe Illustrator 15.1.0, SVG Export Plug-In . SVG Version: 6.00 Build 0)  -->
<!DOCTYPE svg PUBLIC "-//W3C//DTD SVG 1.1//EN" "http://www.w3.org/Graphics/SVG/1.1/DTD/svg11.dtd">
<svg version="1.1" id="Layer_1" xmlns="http://www.w3.org/2000/svg" xmlns:xlink="http://www.w3.org/1999/xlink" x="0px" y="0px"
	 width="25px" height="25px" viewBox="0 0 25 25" enable-background="new 0 0 25 25" xml:space="preserve">
<path d="M12.5,0C5.597,0,0,5.596,0,12.5C0,19.403,5.597,25,12.5,25S25,19.403,25,12.5C25,5.596,19.403,0,12.5,0z M16.326,7.761
	l-1.436,0.011c-0.493,0-0.841,0.105-1.043,0.315c-0.203,0.21-0.305,0.511-0.305,0.902v1.555h2.533l-0.327,2.435h-2.206v6.607h-2.435
	v-6.607H8.674v-2.435h2.435V8.739c0-1.051,0.298-1.868,0.891-2.451c0.595-0.583,1.386-0.875,2.37-0.875
	c0.608,0,1.262,0.032,1.957,0.098V7.761z"/>
</svg>
