<?xml version="1.0" encoding="utf-8"?>
<!-- Generator: Adobe Illustrator 15.1.0, SVG Export Plug-In . SVG Version: 6.00 Build 0)  -->
<!DOCTYPE svg PUBLIC "-//W3C//DTD SVG 1.1//EN" "http://www.w3.org/Graphics/SVG/1.1/DTD/svg11.dtd">
<svg version="1.1" id="Layer_1" xmlns="http://www.w3.org/2000/svg" xmlns:xlink="http://www.w3.org/1999/xlink" x="0px" y="0px"
	 width="25px" height="25px" viewBox="0 0 25 25" enable-background="new 0 0 25 25" xml:space="preserve">
<path d="M12.5,0C5.597,0,0,5.596,0,12.5C0,19.403,5.597,25,12.5,25S25,19.403,25,12.5C25,5.596,19.403,0,12.5,0z M8.46,19.586H5.276
	v-9.568H8.46V19.586z M8.171,8.248c-0.33,0.315-0.766,0.475-1.309,0.475H6.848c-0.522,0-0.949-0.159-1.274-0.475
	c-0.326-0.317-0.491-0.712-0.491-1.18c0-0.478,0.169-0.873,0.505-1.185C5.923,5.57,6.357,5.413,6.89,5.413
	c0.533,0,0.958,0.157,1.281,0.471c0.321,0.312,0.488,0.707,0.499,1.185C8.669,7.536,8.502,7.931,8.171,8.248z M19.918,19.586h-3.185
	v-5.113c0-1.443-0.533-2.166-1.599-2.166c-0.406,0-0.746,0.113-1.021,0.338c-0.275,0.226-0.482,0.499-0.619,0.82
	c-0.064,0.165-0.096,0.423-0.096,0.772v5.349h-3.185c0.026-5.773,0.026-8.962,0-9.568h3.185v1.351
	c0.669-1.047,1.619-1.57,2.853-1.57c1.104,0,1.987,0.364,2.659,1.088c0.672,0.728,1.008,1.798,1.008,3.213V19.586z"/>
</svg>
