<?xml version="1.0" encoding="utf-8"?>
<!-- Generator: Adobe Illustrator 15.1.0, SVG Export Plug-In  -->
<!DOCTYPE svg PUBLIC "-//W3C//DTD SVG 1.1//EN" "http://www.w3.org/Graphics/SVG/1.1/DTD/svg11.dtd" [
	<!ENTITY ns_flows "http://ns.adobe.com/Flows/1.0/">
]>
<svg version="1.1"
	 xmlns="http://www.w3.org/2000/svg" xmlns:xlink="http://www.w3.org/1999/xlink" xmlns:a="http://ns.adobe.com/AdobeSVGViewerExtensions/3.0/"
	 x="0px" y="0px" width="100px" height="142px" viewBox="0 0 100 142" enable-background="new 0 0 100 142" xml:space="preserve">
<defs>
</defs>
<path d="M34.957,138.976c-0.432,0-0.832-0.09-1.199-0.271c-0.367-0.18-0.684-0.418-0.947-0.714
	c-0.266-0.296-0.471-0.638-0.619-1.025c-0.148-0.389-0.221-0.794-0.221-1.219c0-0.439,0.07-0.857,0.215-1.254
	c0.145-0.396,0.342-0.741,0.594-1.038c0.252-0.296,0.553-0.529,0.9-0.701c0.348-0.173,0.73-0.259,1.146-0.259
	c0.527,0,0.996,0.139,1.404,0.414c0.408,0.276,0.727,0.61,0.959,1.002v-3.815h0.816v7.704c0,0.224,0.096,0.336,0.287,0.336v0.72
	c-0.119,0.024-0.215,0.036-0.287,0.036c-0.191,0-0.359-0.062-0.504-0.187c-0.145-0.124-0.217-0.273-0.217-0.449v-0.612
	c-0.248,0.408-0.584,0.731-1.008,0.972S35.414,138.976,34.957,138.976z M35.139,138.256c0.199,0,0.412-0.04,0.641-0.12
	s0.443-0.19,0.643-0.33s0.369-0.304,0.51-0.492c0.141-0.188,0.227-0.39,0.258-0.606v-1.932c-0.08-0.216-0.195-0.418-0.348-0.605
	c-0.152-0.188-0.326-0.354-0.521-0.498c-0.197-0.145-0.406-0.256-0.631-0.336s-0.443-0.12-0.66-0.12
	c-0.336,0-0.641,0.071-0.912,0.216c-0.271,0.144-0.506,0.334-0.701,0.57c-0.197,0.235-0.346,0.506-0.451,0.81
	c-0.104,0.304-0.154,0.616-0.154,0.936c0,0.336,0.059,0.656,0.18,0.96c0.119,0.305,0.283,0.57,0.492,0.799
	c0.207,0.228,0.453,0.41,0.738,0.546C34.504,138.188,34.811,138.256,35.139,138.256z"/>
<path d="M42.553,138.976c-0.455,0-0.873-0.086-1.254-0.258c-0.379-0.172-0.709-0.408-0.988-0.708
	c-0.281-0.301-0.498-0.646-0.654-1.038s-0.234-0.813-0.234-1.26c0-0.44,0.078-0.854,0.234-1.242
	c0.156-0.389,0.371-0.729,0.646-1.021c0.277-0.292,0.607-0.523,0.99-0.695c0.385-0.173,0.801-0.259,1.248-0.259
	c0.457,0,0.875,0.086,1.254,0.259c0.381,0.172,0.707,0.405,0.979,0.701c0.271,0.297,0.484,0.637,0.637,1.021
	c0.15,0.384,0.227,0.792,0.227,1.224c0,0.064,0,0.128,0,0.192s-0.004,0.107-0.012,0.132h-5.352c0.023,0.336,0.102,0.646,0.234,0.93
	c0.131,0.284,0.301,0.53,0.51,0.738c0.207,0.208,0.445,0.37,0.715,0.486c0.268,0.116,0.553,0.174,0.857,0.174
	c0.199,0,0.4-0.028,0.6-0.084s0.385-0.132,0.553-0.229c0.168-0.096,0.318-0.214,0.455-0.354s0.24-0.294,0.313-0.462l0.707,0.191
	c-0.096,0.232-0.23,0.442-0.406,0.631c-0.178,0.188-0.381,0.352-0.613,0.491c-0.232,0.141-0.488,0.248-0.768,0.324
	S42.857,138.976,42.553,138.976z M44.857,135.399c-0.023-0.336-0.102-0.642-0.234-0.918c-0.131-0.276-0.299-0.514-0.504-0.714
	c-0.203-0.2-0.439-0.356-0.707-0.468c-0.27-0.112-0.555-0.168-0.859-0.168c-0.303,0-0.592,0.056-0.863,0.168
	c-0.271,0.111-0.51,0.268-0.713,0.468c-0.205,0.2-0.369,0.44-0.492,0.72c-0.125,0.28-0.199,0.584-0.223,0.912H44.857z"/>
<path d="M48.973,138.976c-0.486,0-0.963-0.08-1.428-0.24c-0.463-0.16-0.863-0.392-1.199-0.696l0.371-0.552
	c0.354,0.288,0.711,0.504,1.074,0.648c0.365,0.144,0.754,0.216,1.17,0.216c0.504,0,0.906-0.103,1.207-0.306
	c0.299-0.204,0.449-0.494,0.449-0.87c0-0.176-0.039-0.322-0.119-0.438c-0.08-0.115-0.199-0.218-0.354-0.306
	c-0.156-0.088-0.354-0.166-0.59-0.234c-0.234-0.067-0.51-0.138-0.82-0.21c-0.361-0.088-0.672-0.176-0.938-0.264
	c-0.264-0.088-0.48-0.188-0.652-0.3c-0.174-0.112-0.301-0.25-0.385-0.414s-0.127-0.37-0.127-0.618c0-0.313,0.063-0.588,0.188-0.828
	c0.123-0.24,0.291-0.438,0.504-0.594c0.211-0.156,0.459-0.274,0.744-0.354c0.283-0.08,0.586-0.12,0.904-0.12
	c0.48,0,0.916,0.078,1.309,0.234s0.709,0.362,0.948,0.618l-0.396,0.479c-0.232-0.239-0.514-0.42-0.846-0.54s-0.68-0.18-1.039-0.18
	c-0.215,0-0.416,0.022-0.6,0.066s-0.346,0.113-0.486,0.21c-0.141,0.096-0.25,0.218-0.33,0.365c-0.08,0.148-0.119,0.322-0.119,0.522
	c0,0.168,0.027,0.304,0.084,0.408c0.055,0.104,0.146,0.193,0.275,0.27s0.289,0.145,0.486,0.204c0.195,0.061,0.434,0.122,0.713,0.187
	c0.4,0.096,0.752,0.191,1.057,0.288c0.305,0.096,0.559,0.208,0.762,0.336c0.205,0.128,0.358,0.283,0.462,0.468
	c0.104,0.184,0.156,0.408,0.156,0.672c0,0.576-0.221,1.032-0.659,1.368C50.309,138.808,49.717,138.976,48.973,138.976z"/>
<path d="M52.741,131.296v-1.2h0.814v1.2H52.741z M52.741,138.855v-6.252h0.814v6.252H52.741z"/>
<path d="M57.864,138.939c-0.432,0-0.826-0.09-1.182-0.27c-0.355-0.181-0.664-0.418-0.924-0.715c-0.26-0.296-0.463-0.636-0.605-1.02
	c-0.145-0.384-0.217-0.78-0.217-1.188c0-0.432,0.07-0.846,0.211-1.241c0.139-0.396,0.338-0.742,0.594-1.038s0.561-0.532,0.918-0.708
	c0.355-0.176,0.75-0.265,1.182-0.265c0.535,0,1,0.135,1.393,0.402c0.391,0.269,0.727,0.606,1.008,1.014v-1.308h0.73v6.276
	c0,0.432-0.082,0.813-0.246,1.146s-0.383,0.61-0.658,0.834c-0.277,0.224-0.602,0.392-0.973,0.504
	c-0.373,0.112-0.766,0.168-1.182,0.168c-0.721,0-1.301-0.128-1.74-0.384s-0.797-0.6-1.068-1.032l0.504-0.396
	c0.248,0.399,0.576,0.693,0.984,0.882c0.408,0.188,0.848,0.282,1.32,0.282c0.303,0,0.592-0.042,0.863-0.126s0.51-0.208,0.715-0.372
	c0.203-0.164,0.365-0.372,0.484-0.624c0.121-0.252,0.182-0.546,0.182-0.882v-1.236c-0.24,0.4-0.568,0.716-0.984,0.948
	C58.757,138.823,58.321,138.939,57.864,138.939z M58.093,138.256c0.24,0,0.477-0.044,0.707-0.133
	c0.232-0.088,0.443-0.205,0.631-0.354s0.346-0.313,0.475-0.498c0.127-0.184,0.211-0.372,0.252-0.564v-1.932
	c-0.088-0.224-0.209-0.432-0.361-0.624s-0.324-0.355-0.516-0.492c-0.191-0.136-0.398-0.243-0.617-0.323
	c-0.221-0.08-0.443-0.12-0.666-0.12c-0.354,0-0.666,0.073-0.943,0.222c-0.275,0.148-0.51,0.342-0.701,0.582
	s-0.338,0.512-0.438,0.816c-0.102,0.304-0.15,0.611-0.15,0.924c0,0.336,0.061,0.656,0.18,0.96c0.121,0.304,0.287,0.569,0.498,0.798
	c0.213,0.228,0.459,0.408,0.738,0.54S57.765,138.256,58.093,138.256z"/>
<path d="M68.028,138.855h-0.816v-3.492c0-0.744-0.109-1.284-0.33-1.62c-0.219-0.336-0.557-0.504-1.014-0.504
	c-0.24,0-0.48,0.044-0.719,0.132c-0.24,0.089-0.463,0.213-0.666,0.372c-0.205,0.16-0.387,0.351-0.547,0.57s-0.275,0.458-0.348,0.714
	v3.828h-0.816v-6.252h0.744v1.416c0.256-0.456,0.621-0.824,1.098-1.104c0.477-0.279,0.994-0.42,1.555-0.42
	c0.344,0,0.635,0.064,0.875,0.192s0.432,0.308,0.576,0.54s0.248,0.516,0.313,0.852s0.096,0.708,0.096,1.116V138.855z"/>
<path d="M17.569,105.814l-4.022,18.449H10.14l-2.854-12.235l-2.817,12.235H2.131l3.71-16.896c-1.141,0.402-1.995,1.023-2.566,1.867
	c-0.569,0.843-0.854,1.866-0.854,3.07c0,0.531,0.059,1.014,0.175,1.451c0.116,0.438,0.278,0.793,0.488,1.066
	c-1.053,0-1.829-0.215-2.331-0.645S0,113.072,0,112.148c0-0.586,0.09-1.152,0.27-1.697c0.182-0.547,0.435-1.061,0.76-1.542
	c0.324-0.481,0.716-0.921,1.173-1.318c0.458-0.397,0.965-0.739,1.519-1.024c0.553-0.284,1.147-0.505,1.781-0.662
	c0.635-0.156,1.297-0.234,1.987-0.234c0.386,0,0.721,0.025,1.006,0.078s0.6,0.139,0.945,0.259l2.974,13.198l2.758-13.391H17.569z"/>
<path d="M23.951,119.844c-0.232,0.666-0.491,1.244-0.776,1.734c-0.284,0.49-0.582,0.902-0.891,1.24
	c-0.309,0.337-0.626,0.61-0.951,0.818c-0.326,0.209-0.641,0.37-0.946,0.482c-0.305,0.112-0.597,0.188-0.872,0.229
	c-0.278,0.04-0.524,0.061-0.741,0.061c-0.37,0-0.714-0.057-1.036-0.169c-0.32-0.112-0.6-0.289-0.836-0.53
	c-0.237-0.24-0.425-0.545-0.561-0.915c-0.136-0.369-0.204-0.814-0.204-1.337c0-0.225,0.016-0.471,0.047-0.74
	c0.033-0.27,0.081-0.561,0.145-0.873l1.675-7.912h3.552l-1.771,8.382c-0.039,0.137-0.065,0.271-0.078,0.403
	c-0.012,0.133-0.018,0.264-0.018,0.392c0,0.345,0.08,0.584,0.24,0.716c0.161,0.133,0.414,0.199,0.76,0.199
	c0.24,0,0.475-0.054,0.704-0.162c0.229-0.109,0.439-0.26,0.633-0.452c0.192-0.192,0.364-0.423,0.517-0.692
	c0.153-0.27,0.278-0.561,0.374-0.873H23.951z M22.422,108.656c0,0.273-0.052,0.528-0.156,0.765
	c-0.104,0.237-0.247,0.442-0.428,0.614c-0.18,0.173-0.389,0.309-0.626,0.409c-0.236,0.101-0.492,0.151-0.765,0.151
	c-0.273,0-0.528-0.051-0.765-0.151s-0.444-0.236-0.62-0.409c-0.177-0.172-0.314-0.377-0.415-0.614
	c-0.102-0.236-0.151-0.491-0.151-0.765s0.05-0.527,0.151-0.765c0.101-0.237,0.238-0.445,0.415-0.626
	c0.176-0.181,0.384-0.323,0.62-0.428s0.491-0.156,0.765-0.156c0.272,0,0.528,0.052,0.765,0.156c0.237,0.104,0.446,0.247,0.626,0.428
	c0.181,0.181,0.323,0.389,0.428,0.626S22.422,108.383,22.422,108.656z"/>
<path d="M33.224,119.844c-0.344,0.578-0.74,1.141-1.186,1.686c-0.445,0.547-0.947,1.031-1.506,1.458
	c-0.558,0.425-1.176,0.769-1.854,1.029s-1.423,0.392-2.233,0.392c-0.587,0-1.116-0.074-1.59-0.223s-0.879-0.38-1.216-0.693
	c-0.338-0.313-0.596-0.716-0.777-1.209c-0.18-0.494-0.271-1.091-0.271-1.789c0-0.474,0.048-1.021,0.146-1.645
	c0.096-0.621,0.25-1.258,0.463-1.908s0.489-1.288,0.831-1.914c0.341-0.627,0.759-1.185,1.252-1.674
	c0.493-0.49,1.066-0.886,1.716-1.187c0.651-0.302,1.393-0.452,2.228-0.452c0.546,0,0.996,0.066,1.35,0.199
	c0.353,0.133,0.634,0.305,0.843,0.518s0.353,0.456,0.433,0.729c0.08,0.273,0.121,0.546,0.121,0.818c0,0.306-0.034,0.568-0.103,0.789
	c-0.067,0.221-0.162,0.408-0.282,0.561c-0.121,0.152-0.262,0.265-0.422,0.337c-0.161,0.072-0.329,0.108-0.506,0.108
	c-0.281,0-0.57-0.096-0.867-0.289c0.2-0.529,0.302-1.016,0.302-1.457c0-0.305-0.057-0.551-0.17-0.734
	c-0.111-0.186-0.284-0.277-0.517-0.277c-0.258,0-0.514,0.116-0.771,0.35c-0.257,0.232-0.503,0.542-0.74,0.928
	c-0.236,0.385-0.455,0.826-0.657,1.324c-0.199,0.498-0.374,1.016-0.522,1.553c-0.149,0.539-0.266,1.074-0.35,1.607
	c-0.084,0.535-0.127,1.03-0.127,1.488c0,0.418,0.039,0.76,0.115,1.029s0.188,0.48,0.337,0.632c0.148,0.153,0.333,0.259,0.554,0.319
	s0.479,0.091,0.776,0.091c0.49,0,0.935-0.064,1.331-0.192c0.397-0.129,0.77-0.306,1.113-0.53c0.347-0.225,0.673-0.489,0.982-0.795
	c0.309-0.306,0.619-0.63,0.933-0.976H33.224z"/>
<path d="M42.245,120.313c-0.042,0.137-0.071,0.27-0.092,0.397c-0.021,0.129-0.03,0.262-0.03,0.397c0,0.249,0.064,0.464,0.193,0.644
	c0.128,0.182,0.386,0.271,0.771,0.271c0.144,0,0.262-0.004,0.354-0.012c0.093-0.008,0.17-0.02,0.229-0.036
	c0.061-0.017,0.111-0.034,0.15-0.055c0.041-0.021,0.084-0.038,0.133-0.054c-0.032,0.441-0.139,0.82-0.318,1.138
	c-0.182,0.317-0.392,0.58-0.633,0.789s-0.484,0.363-0.729,0.464c-0.245,0.1-0.452,0.15-0.62,0.15c-1.028,0-1.803-0.243-2.324-0.729
	c-0.522-0.486-0.783-1.179-0.783-2.078c0-0.385,0.048-0.814,0.145-1.288l0.205-0.964c0.04-0.16,0.066-0.316,0.078-0.469
	s0.018-0.297,0.018-0.434c0-0.361-0.063-0.65-0.192-0.867s-0.361-0.325-0.698-0.325c-0.281,0-0.568,0.082-0.861,0.247
	c-0.292,0.164-0.612,0.387-0.957,0.668l-1.289,6.094h-3.552l3.576-16.775l3.648-0.494l-1.843,8.684l4.758-3.746h2.444l-4.938,3.432
	c0.272-0.071,0.547-0.107,0.818-0.107c0.458,0,0.856,0.076,1.199,0.229c0.34,0.152,0.624,0.361,0.849,0.626s0.392,0.572,0.5,0.921
	c0.108,0.35,0.162,0.721,0.162,1.114c0,0.153-0.006,0.308-0.019,0.464c-0.012,0.156-0.037,0.315-0.078,0.476L42.245,120.313z"/>
<path d="M64.413,124.264l-0.289-12.549l-4.684,12.549h-3.553l-0.398-16.848c-1.156,0.434-2.057,1.112-2.703,2.035
	c-0.646,0.924-0.969,2.071-0.969,3.444c0,0.313,0.018,0.567,0.055,0.765c0.035,0.197,0.074,0.354,0.113,0.469
	c0.041,0.117,0.078,0.207,0.115,0.271c0.035,0.064,0.055,0.121,0.055,0.169c-0.426,0-0.805-0.042-1.133-0.127
	c-0.328-0.084-0.604-0.218-0.825-0.403c-0.221-0.184-0.389-0.43-0.504-0.734c-0.118-0.305-0.176-0.682-0.176-1.132
	c0-0.546,0.118-1.084,0.355-1.614c0.236-0.529,0.562-1.031,0.976-1.505c0.412-0.474,0.898-0.911,1.457-1.313
	c0.557-0.401,1.156-0.749,1.793-1.042c0.639-0.293,1.305-0.521,2-0.687c0.693-0.164,1.387-0.246,2.076-0.246
	c0.186,0,0.357,0.004,0.514,0.012c0.156,0.009,0.314,0.021,0.475,0.036l0.217,15.174l5.191-15.102H67.7l0.219,15.102l5.178-15.102
	h1.734l-6.865,18.377H64.413z"/>
<path d="M86.958,114.895c-0.482,0.506-1.105,0.936-1.867,1.288c-0.762,0.354-1.598,0.606-2.506,0.759
	c-0.096,1.141-0.314,2.168-0.656,3.083c-0.34,0.915-0.771,1.694-1.293,2.337s-1.121,1.135-1.795,1.48s-1.389,0.518-2.145,0.518
	c-0.568,0-1.098-0.07-1.582-0.211c-0.486-0.14-0.904-0.365-1.254-0.674c-0.348-0.309-0.623-0.711-0.818-1.204
	c-0.197-0.494-0.295-1.095-0.295-1.801c0-0.481,0.051-1.029,0.15-1.644s0.26-1.246,0.482-1.896c0.221-0.65,0.506-1.287,0.854-1.908
	c0.35-0.623,0.775-1.179,1.277-1.668c0.502-0.49,1.082-0.886,1.74-1.187c0.658-0.302,1.408-0.452,2.252-0.452
	c2.111,0,3.166,1.313,3.166,3.938v0.024c0.041,0.016,0.078,0.023,0.117,0.023c0.035,0,0.086,0,0.148,0
	c0.289,0,0.602-0.042,0.934-0.127c0.334-0.084,0.668-0.193,1.006-0.33c0.336-0.137,0.666-0.295,0.988-0.477
	c0.32-0.18,0.613-0.363,0.877-0.547L86.958,114.895z M80.538,117.014c-0.256-0.064-0.43-0.19-0.523-0.379
	c-0.094-0.189-0.139-0.407-0.139-0.656c0-0.346,0.07-0.629,0.211-0.85s0.328-0.383,0.561-0.487
	c-0.018-0.265-0.045-0.488-0.084-0.669c-0.041-0.18-0.098-0.328-0.17-0.445c-0.072-0.116-0.162-0.199-0.27-0.246
	c-0.109-0.049-0.248-0.072-0.416-0.072c-0.297,0-0.582,0.113-0.855,0.343c-0.273,0.229-0.531,0.532-0.777,0.909
	c-0.244,0.377-0.469,0.809-0.674,1.295c-0.205,0.485-0.379,0.984-0.523,1.499c-0.145,0.514-0.258,1.021-0.338,1.522
	c-0.08,0.503-0.119,0.958-0.119,1.367c0,0.41,0.021,0.742,0.066,1c0.043,0.257,0.115,0.46,0.215,0.607
	c0.102,0.148,0.232,0.252,0.393,0.308s0.357,0.085,0.59,0.085c0.297,0,0.596-0.133,0.896-0.398c0.303-0.265,0.58-0.626,0.838-1.084
	c0.256-0.457,0.482-0.999,0.682-1.625C80.296,118.41,80.442,117.736,80.538,117.014z"/>
<path d="M91.546,119.844c-0.232,0.666-0.492,1.244-0.777,1.734s-0.582,0.902-0.891,1.24c-0.309,0.337-0.627,0.61-0.951,0.818
	c-0.326,0.209-0.641,0.37-0.947,0.482c-0.305,0.112-0.596,0.188-0.871,0.229c-0.279,0.04-0.525,0.061-0.742,0.061
	c-0.369,0-0.713-0.057-1.035-0.169c-0.32-0.112-0.6-0.289-0.836-0.53c-0.236-0.24-0.424-0.545-0.561-0.915
	c-0.137-0.369-0.205-0.814-0.205-1.337c0-0.225,0.016-0.471,0.049-0.74c0.031-0.27,0.08-0.561,0.145-0.873l2.637-12.355l3.648-0.494
	l-2.83,13.319c-0.039,0.137-0.064,0.271-0.078,0.403c-0.012,0.133-0.018,0.264-0.018,0.392c0,0.345,0.08,0.584,0.242,0.716
	c0.16,0.133,0.412,0.199,0.758,0.199c0.24,0,0.475-0.054,0.705-0.162c0.229-0.109,0.438-0.26,0.633-0.452
	c0.191-0.192,0.363-0.423,0.516-0.692s0.277-0.561,0.373-0.873H91.546z"/>
<path d="M92.604,109.98c0.178-0.883,0.436-1.598,0.777-2.143c0.342-0.547,0.721-0.972,1.139-1.277
	c0.416-0.305,0.85-0.51,1.301-0.613c0.447-0.104,0.873-0.156,1.275-0.156c0.369,0,0.729,0.063,1.078,0.191
	c0.35,0.129,0.658,0.31,0.928,0.543c0.268,0.232,0.484,0.512,0.65,0.836c0.164,0.326,0.246,0.689,0.246,1.09
	c0,0.386-0.023,0.723-0.072,1.012h-1.156c0.016-0.137,0.027-0.252,0.037-0.349c0.008-0.097,0.012-0.2,0.012-0.313
	c0-0.281-0.096-0.492-0.283-0.632c-0.188-0.141-0.408-0.211-0.656-0.211c-0.129,0-0.275,0.028-0.439,0.084
	c-0.164,0.057-0.33,0.159-0.494,0.308s-0.316,0.355-0.457,0.619c-0.141,0.266-0.252,0.604-0.332,1.012l-0.42,1.951h1.805
	l-0.18,0.988h-1.818l-2.842,13.318c-0.178,0.883-0.432,1.598-0.766,2.145c-0.332,0.545-0.703,0.971-1.107,1.275
	c-0.406,0.306-0.828,0.51-1.27,0.614c-0.443,0.104-0.863,0.156-1.266,0.156c-0.369,0-0.729-0.064-1.078-0.192
	c-0.348-0.129-0.66-0.309-0.934-0.542c-0.271-0.232-0.49-0.512-0.654-0.837c-0.166-0.325-0.248-0.688-0.248-1.09
	c0-0.57,0.111-1.049,0.332-1.438s0.523-0.724,0.908-0.999c0.385-0.277,0.834-0.513,1.348-0.705c0.516-0.193,1.064-0.378,1.652-0.555
	L92.604,109.98z M89.45,124.877c-0.385,0.129-0.744,0.271-1.078,0.428s-0.621,0.338-0.861,0.542
	c-0.24,0.205-0.428,0.436-0.564,0.692c-0.139,0.258-0.207,0.551-0.207,0.879c0,0.097,0.025,0.193,0.072,0.289
	c0.051,0.097,0.119,0.184,0.207,0.26s0.191,0.141,0.313,0.192c0.119,0.052,0.252,0.078,0.396,0.078c0.129,0,0.26-0.03,0.391-0.091
	c0.135-0.06,0.262-0.164,0.387-0.313s0.238-0.348,0.342-0.596c0.105-0.25,0.197-0.559,0.277-0.928L89.45,124.877z"/>
<path d="M49.994,0C22.381,0,0,22.387,0,50c0,27.614,22.381,50,49.994,50c27.618,0,50.005-22.386,50.005-50
	C99.999,22.387,77.612,0,49.994,0z M76.054,81.247h-0.018h-10.41H55.214H44.793c-5.75,0-10.412-4.652-10.416-10.408v-0.004V39.586
	h10.416v31.249h10.421V29.17H23.965v52.077h-10.42V29.17c0-5.751,4.66-10.412,10.412-10.416h0.008h31.265
	c5.619,0,10.186,4.45,10.396,10.016v0.4v41.665h10.41V18.754h10.418v52.081C86.454,76.585,81.792,81.247,76.054,81.247z"/>
</svg>
