<?xml version="1.0" encoding="utf-8"?>
<!-- Generator: Adobe Illustrator 15.1.0, SVG Export Plug-In . SVG Version: 6.00 Build 0)  -->
<!DOCTYPE svg PUBLIC "-//W3C//DTD SVG 1.1//EN" "http://www.w3.org/Graphics/SVG/1.1/DTD/svg11.dtd">
<svg version="1.1" id="Layer_1" xmlns="http://www.w3.org/2000/svg" xmlns:xlink="http://www.w3.org/1999/xlink" x="0px" y="0px"
	 width="100px" height="100px" viewBox="0 0 100 100" enable-background="new 0 0 100 100" xml:space="preserve">
<path d="M49.995,0C22.382,0,0,22.386,0,50s22.382,50,49.995,50C77.614,100,100,77.614,100,50S77.614,0,49.995,0z M76.056,81.247
	h-0.018H65.627H55.215H44.794c-5.751,0-10.412-4.652-10.416-10.407v-0.004V39.586h10.416v31.249h10.421V29.169h-31.25v52.077h-10.42
	V29.169c0-5.751,4.661-10.412,10.412-10.416h0.008h31.266c5.618,0,10.186,4.45,10.396,10.017v0.399v41.666h10.411V18.753h10.417
	v52.082C86.455,76.585,81.794,81.247,76.056,81.247z"/>
</svg>
